CompleatedBeleren-Bold.sfdir
StartChar: exclam
Encoding: 33 33 78
Width: 1440
VWidth: 2573
Flags: W
HStem: 0 21G<138 376 644 1032> 705 115<285 1450> 1500 20G<138 376 644 1032>
VStem: 265 111<57.1326 1440> 285 91<705 820> 644 261<80 1462.87>
LayerCount: 2
Fore
SplineSet
265 167 m 9xf4
 265 1440 l 17xf4
 138 1520 l 9
 376 1520 l 25
 376 0 l 25xec
 138 0 l 17
 196 33 265 70 265 167 c 9xf4
285 705 m 25xec
 285 820 l 25
 1450 820 l 1
 1450 762 l 1
 1450 705 l 1
 285 705 l 25xec
905 1353 m 9
 905 80 l 17
 1032 0 l 9
 644 0 l 25
 644 1520 l 25
 1032 1520 l 17
 974 1487 905 1450 905 1353 c 9
EndSplineSet
EndChar
StartChar: quotedbl
Encoding: 34 34 81
Width: 1200
VWidth: 2573
Flags: W
HStem: -10 212<420.709 673.931> 705 115<376 1210> 1500 20G<244 632>
VStem: 244 261<283.477 705 820 1462.87> 376 129<705 820>
LayerCount: 2
Fore
SplineSet
376 705 m 25xe8
 376 820 l 25
 1210 820 l 17
 1210 762 l 1
 1210 705 l 9
 376 705 l 25xe8
505 1353 m 1xf0
 505 438 l 2xf0
 505 312 574.704101562 202 663 202 c 3
 759.4296875 202 847 296 935 482 c 1
 941 476 l 1
 871 144 702.380859375 -10 505 -10 c 3xe8
 336.41796875 -10 244 159.211284003 244 420 c 2
 244 1520 l 1
 632 1520 l 17
 574 1487 505 1450 505 1353 c 1xf0
EndSplineSet
EndChar
StartChar: quotesingle
Encoding: 39 39 32
Width: 1760
VWidth: 2573
Flags: W
HStem: 103 21G<1679 1732> 705 115<-10 1770> 1384 20G<278.4 388>
LayerCount: 2
Fore
SplineSet
762 390 m 5
 762 380 l 5
 652 346 550 260 496 221 c 5
 442 264 342 355 228 385 c 5
 228 395 l 5
 338 429 440 515 494 554 c 5
 548 511 648 420 762 390 c 5
16 1304 m 1
 344 1404 l 1
 432 1333 596.04278306 1180.04537597 822 967 c 2
 1732 109 l 1
 1726 103 l 1
 1632 156 1488 200 1335 140 c 1
 1203 262 1086.94428591 373.942274573 918 537 c 2
 631 814 l 2
 424.393480748 1013.40768583 176 1271 16 1304 c 1
-10 705 m 1
 -10 764 l 1
 -10 820 l 1
 1770 820 l 1
 1770 763 l 1
 1770 705 l 1
 -10 705 l 1
EndSplineSet
EndChar
StartChar: comma
Encoding: 44 44 31
Width: 1100
VWidth: 2573
Flags: W
HStem: 715 95<-10 280 770 1110>
LayerCount: 2
Fore
SplineSet
280 810 m 25
 280 715 l 25
 -10 715 l 21
 -10 763 l 5
 -10 810 l 13
 280 810 l 25
770 715 m 25
 770 810 l 25
 1110 810 l 17
 1110 762 l 1
 1110 715 l 9
 770 715 l 25
EndSplineSet
EndChar
StartChar: period
Encoding: 46 46 14
Width: 1550
VWidth: 2573
Flags: W
HStem: 705 115<-10 760>
LayerCount: 2
Fore
SplineSet
-10 705 m 1
 -10 759 l 1
 -10 820 l 1
 1295 820 l 1
 407 172 l 1
 401 178 l 1
 760 705 l 1
 -10 705 l 1
EndSplineSet
EndChar
StartChar: slash
Encoding: 47 47 26
Width: 1320
VWidth: 2573
Flags: W
HStem: 0 21G<1098.73 1279> 1492 20G<41 221.274>
LayerCount: 2
Fore
SplineSet
1279 10 m 1
 1279 0 l 1
 1113 0 l 1
 41 1502 l 1
 41 1512 l 1
 207 1512 l 1
 1279 10 l 1
EndSplineSet
EndChar
StartChar: five
Encoding: 53 53 66
Width: 2000
VWidth: 2573
Flags: W
HStem: -217 21G<938 997> 705 115<-10 2010> 1705 20G<938 997> 1705 20G<938 997>
VStem: 844 261<234.395 1273.61>
LayerCount: 2
Fore
SplineSet
512 240 m 1xc8
 680 -101 l 1
 674 -107 l 1
 154 240 l 5
 674 587 l 1
 680 581 l 1
 512 240 l 1xc8
-10 705 m 1
 -10 764 l 1
 -10 820 l 1
 2010 820 l 1
 2010 763 l 1
 2010 705 l 1
 -10 705 l 1
1105 832 m 1
 1105 676 l 1
 1105 516 1023 -134 971 -217 c 1
 961 -217 l 1
 915 -132 844 508 844 676 c 1
 844 832 l 1
 844 1000 915 1640 961 1725 c 1
 971 1725 l 1xe8
 1023 1642 1105 992 1105 832 c 1
EndSplineSet
EndChar
StartChar: seven
Encoding: 55 55 67
Width: 2000
VWidth: 2573
Flags: W
HStem: -217 21G<938 997> 705 115<-10 2010> 943 21G<1685.03 1721> 1617 108G<938 997 1685.03 1721> 1705 20G<938 997>
VStem: 844 261<234.395 1273.61>
LayerCount: 2
Fore
SplineSet
1553 1290 m 5xe4
 1721 949 l 5
 1715 943 l 5
 1195 1290 l 1
 1715 1637 l 5
 1721 1631 l 5
 1553 1290 l 5xe4
-10 705 m 1
 -10 764 l 1
 -10 820 l 1
 2010 820 l 1
 2010 763 l 1
 2010 705 l 1
 -10 705 l 1
1105 832 m 1
 1105 676 l 1
 1105 516 1023 -134 971 -217 c 1
 961 -217 l 1
 915 -132 844 508 844 676 c 1
 844 832 l 1
 844 1000 915 1640 961 1725 c 1
 971 1725 l 1xf4
 1023 1642 1105 992 1105 832 c 1
EndSplineSet
EndChar
StartChar: eight
Encoding: 56 56 68
Width: 2000
VWidth: 2573
Flags: W
HStem: -217 21G<938 997> 705 115<-10 2010> 943 21G<646.911 680> 1704 21G<307 354.483 938 997> 1704 21G<307 354.483 938 997>
VStem: 844 261<234.395 1273.61>
LayerCount: 2
Fore
SplineSet
512 1290 m 1xe4
 680 949 l 1
 674 943 l 1
 204 1290 l 1
 447 1484 l 1
 307 1718 l 1
 313 1724 l 1
 755 1510.90136719 l 5
 512 1290 l 1xe4
-10 705 m 1
 -10 764 l 1
 -10 820 l 1
 2010 820 l 1
 2010 763 l 1
 2010 705 l 1
 -10 705 l 1
1105 832 m 1
 1105 676 l 1
 1105 516 1023 -134 971 -217 c 1
 961 -217 l 1
 915 -132 844 508 844 676 c 1
 844 832 l 1
 844 1000 915 1640 961 1725 c 1
 971 1725 l 1xf4
 1023 1642 1105 992 1105 832 c 1
EndSplineSet
EndChar
StartChar: colon
Encoding: 58 58 77
Width: 2050
VWidth: 2573
Flags: W
HStem: 705 115<-10 358> 1101 21G<1572.1 1718> 1239.9 249.798<676.574 1159.05>
VStem: 358 114<820 1003.06>
LayerCount: 2
Fore
SplineSet
-10 705 m 1
 -10 759 l 1
 -10 820 l 1
 358 820 l 17
 358 1357.37597656 573.94140625 1489.69921875 840 1489.69921875 c 3
 1255 1489.69921875 1515 1290.90136719 1718 1107 c 1
 1712 1101 l 1
 1432.20117188 1192.296875 1147.00683594 1239.90136719 886 1239.90136719 c 3
 522.994140625 1239.90136719 472 966.834960938 472 705 c 9
 -10 705 l 1
EndSplineSet
EndChar
StartChar: question
Encoding: 63 63 79
Width: 1210
VWidth: 2573
Flags: W
HStem: 0 21G<424 812> 705 115<556 1220> 924 21G<775.303 981 1001 1041> 1378.9 141.099G<29 70.1319 89 130.132 424 812>
VStem: 556 129<705 820>
LayerCount: 2
Fore
SplineSet
29 1320 m 1
 29 1398.90136719 l 1
 981 936 l 5
 981 926 l 5
 815 924 l 5
 29 1320 l 1
89 1544 m 1
 89 1622.90136719 l 1
 1041 1160 l 1
 1041 1068 l 1
 89 1544 l 1
556 705 m 25
 556 820 l 25
 1220 820 l 17
 1220 762 l 1
 1220 705 l 9
 556 705 l 25
685 1353 m 9
 685 80 l 17
 812 0 l 9
 424 0 l 25
 424 1520 l 25
 812 1520 l 17
 754 1487 685 1450 685 1353 c 9
EndSplineSet
EndChar
StartChar: A
Encoding: 65 65 70
Width: 2000
VWidth: 2573
Flags: W
HStem: -217 21G<938 997> 705 115<-10 2010> 1705 20G<938 997> 1705 20G<938 997>
VStem: 844 261<234.395 1273.61>
LayerCount: 2
Fore
SplineSet
1558 152 m 5xc8
 1726 -189 l 5
 1720 -195 l 5
 1250 152 l 5
 1493 346 l 5
 1353 580 l 5
 1359 586 l 5
 1801 372.901367188 l 5
 1558 152 l 5xc8
-10 705 m 1
 -10 764 l 1
 -10 820 l 1
 2010 820 l 1
 2010 763 l 1
 2010 705 l 1
 -10 705 l 1
1105 832 m 1
 1105 676 l 1
 1105 516 1023 -134 971 -217 c 1
 961 -217 l 1
 915 -132 844 508 844 676 c 1
 844 832 l 1
 844 1000 915 1640 961 1725 c 1
 971 1725 l 1xe8
 1023 1642 1105 992 1105 832 c 1
EndSplineSet
EndChar
StartChar: B
Encoding: 66 66 71
Width: 2000
VWidth: 2573
Flags: W
HStem: -217 21G<938 997> 705 115<-10 2010> 943 21G<1674.91 1708> 1704 21G<938 997 1335 1382.48> 1704 21G<938 997 1335 1382.48>
VStem: 844 261<234.395 1273.61>
LayerCount: 2
Fore
SplineSet
1540 1290 m 5xe4
 1708 949 l 5
 1702 943 l 5
 1232 1290 l 5
 1475 1484 l 5
 1335 1718 l 5
 1341 1724 l 5
 1783 1510.90136719 l 5
 1540 1290 l 5xe4
-10 705 m 1
 -10 764 l 1
 -10 820 l 1
 2010 820 l 1
 2010 763 l 1
 2010 705 l 1
 -10 705 l 1
1105 832 m 1
 1105 676 l 1
 1105 516 1023 -134 971 -217 c 1
 961 -217 l 1
 915 -132 844 508 844 676 c 1
 844 832 l 1
 844 1000 915 1640 961 1725 c 1
 971 1725 l 1xf4
 1023 1642 1105 992 1105 832 c 1
EndSplineSet
EndChar
StartChar: C
Encoding: 67 67 25
Width: 2000
VWidth: 2573
Flags: W
HStem: -217 21G<938 997> 705 115<-10 2010> 949 21G<611.725 680> 1698 27G<307 388.433 938 997> 1704 21G<307 388.433 938 997>
VStem: 844 261<234.395 1273.61>
LayerCount: 2
Fore
SplineSet
307 1718 m 5xe4
 423 1660 l 5
 680 949 l 5
 563 1004 l 5
 307 1718 l 5xe4
387 1105 m 5
 591 1032 l 5
 680 949 l 5
 674 943 l 5
 154 1110 l 5
 599 1584 l 5
 355 1660 l 5
 307 1718 l 5
 313 1724 l 5
 815 1590.90136719 l 5
 387 1105 l 5
-10 705 m 1
 -10 764 l 1
 -10 820 l 1
 2010 820 l 1
 2010 763 l 1
 2010 705 l 1
 -10 705 l 1
1105 832 m 1
 1105 676 l 1
 1105 516 1023 -134 971 -217 c 1
 961 -217 l 1
 915 -132 844 508 844 676 c 1
 844 832 l 1
 844 1000 915 1640 961 1725 c 1
 971 1725 l 1xf4
 1023 1642 1105 992 1105 832 c 1
EndSplineSet
EndChar
StartChar: D
Encoding: 68 68 72
Width: 2000
VWidth: 2573
Flags: W
HStem: -217 21G<938 997> 705 115<-10 2010> 1705 20G<938 997> 1705 20G<938 997>
VStem: 844 261<234.395 1273.61>
LayerCount: 2
Fore
SplineSet
307 572 m 5xc8
 423 514 l 5
 680 -197 l 5
 563 -142 l 5
 307 572 l 5xc8
387 -41 m 5
 591 -114 l 5
 680 -197 l 5
 674 -203 l 5
 154 -36 l 5
 599 438 l 5
 355 514 l 5
 307 572 l 5
 313 578 l 5
 815 444.901367188 l 5
 387 -41 l 5
-10 705 m 1
 -10 764 l 1
 -10 820 l 1
 2010 820 l 1
 2010 763 l 1
 2010 705 l 1
 -10 705 l 1
1105 832 m 1
 1105 676 l 1
 1105 516 1023 -134 971 -217 c 1
 961 -217 l 1
 915 -132 844 508 844 676 c 1
 844 832 l 1
 844 1000 915 1640 961 1725 c 1
 971 1725 l 1xe8
 1023 1642 1105 992 1105 832 c 1
EndSplineSet
EndChar
StartChar: F
Encoding: 70 70 74
Width: 2000
VWidth: 2573
Flags: W
HStem: -217 21G<938 997> 705 115<-10 2010> 949 21G<1679.72 1748> 1698 27G<938 997 1375 1456.43> 1704 21G<938 997 1375 1456.43>
VStem: 844 261<234.395 1273.61>
LayerCount: 2
Fore
SplineSet
1375 1718 m 5xe4
 1491 1660 l 5
 1748 949 l 5
 1631 1004 l 5
 1375 1718 l 5xe4
1455 1105 m 5
 1659 1032 l 5
 1748 949 l 5
 1742 943 l 5
 1222 1110 l 5
 1667 1584 l 5
 1423 1660 l 5
 1375 1718 l 5
 1381 1724 l 5
 1883 1590.90136719 l 5
 1455 1105 l 5
-10 705 m 1
 -10 764 l 1
 -10 820 l 1
 2010 820 l 1
 2010 763 l 1
 2010 705 l 1
 -10 705 l 1
1105 832 m 1
 1105 676 l 1
 1105 516 1023 -134 971 -217 c 1
 961 -217 l 1
 915 -132 844 508 844 676 c 1
 844 832 l 1
 844 1000 915 1640 961 1725 c 1
 971 1725 l 1xf4
 1023 1642 1105 992 1105 832 c 1
EndSplineSet
EndChar
StartChar: asciicircum
Encoding: 94 94 0
Width: 920
VWidth: 2573
Flags: W
HStem: 0 21G<244 632> 705 115<376 930> 1500 20G<244 632>
VStem: 376 129<705 820>
LayerCount: 2
Fore
SplineSet
376 705 m 25
 376 820 l 25
 930 820 l 17
 930 762 l 1
 930 705 l 9
 376 705 l 25
505 1353 m 9
 505 80 l 17
 632 0 l 9
 244 0 l 25
 244 1520 l 25
 632 1520 l 17
 574 1487 505 1450 505 1353 c 9
EndSplineSet
EndChar
StartChar: a
Encoding: 97 97 18
Width: 1470
VWidth: 2573
Flags: W
HStem: 705 513<212 475 592 855> 705 115<-10 212 475 592 855 1002 1268 1480> 778 42<1002 1268> 1704 20G<1002 1035.5>
VStem: 212 263<786 1179.45> 592 263<786 1179.45> 1002 266<778 1617.82>
LayerCount: 2
Back
SplineSet
1002 786 m 29x9c
 1002 1218 l 5
 1355 1218 l 5
 1307 1191 1265 1160 1265 1088 c 13
 1265 770 l 5
 1002 786 l 29x9c
592 786 m 29
 592 1218 l 5
 945 1218 l 5
 897 1191 855 1160 855 1088 c 13
 855 770 l 5
 592 786 l 29
202 778 m 5x3c
 202 1724 l 5
 256 1652 396.603515625 1575.8515625 468 1568 c 13
 468 770 l 29
 202 778 l 5x3c
-10 705 m 5x5c
 -10 759 l 5
 -10 820 l 5
 1480 820 l 5
 1480 764 l 5
 1480 705 l 5
 -10 705 l 5x5c
EndSplineSet
Fore
SplineSet
592 786 m 25x9e
 592 1218 l 1
 935 1218 l 1
 887 1181 855 1110 855 1038 c 9
 855 770 l 1
 592 786 l 25x9e
212 786 m 25
 212 1218 l 1
 555 1218 l 1
 507 1181 475 1110 475 1038 c 9
 475 770 l 1
 212 786 l 25
1002 778 m 25x3e
 1002 1724 l 1
 1011 1724 l 1
 1060 1656 1212 1618.62109375 1268 1608 c 9
 1268 770 l 25
 1002 778 l 25x3e
-10 705 m 1x5e
 -10 759 l 1
 -10 820 l 1
 1480 820 l 1
 1480 764 l 1
 1480 705 l 1
 -10 705 l 1x5e
EndSplineSet
EndChar
StartChar: b
Encoding: 98 98 4
Width: 1760
VWidth: 2573
Flags: W
HStem: 103 21G<1679 1732> 705 115<-10 1770> 1384 20G<278.4 388>
LayerCount: 2
Back
SplineSet
26 1304 m 1
 344 1404 l 1
 432 1333 596.093941274 1181.09912186 822 967 c 2
 1109 695 l 2
 1422.12411658 398.241255364 1552 300 1735 298 c 1
 1735 288 l 1
 1355 140 l 1
 1221 261 1097 374 928 537 c 2
 641 814 l 2
 434.393554688 1013.40722656 186 1270.90136719 26 1304 c 1
EndSplineSet
Fore
SplineSet
16 1304 m 1
 344 1404 l 1
 432 1333 595.929231702 1179.86213914 822 967 c 2
 1732 109 l 1
 1726 103 l 1
 1632 156 1488 200 1335 140 c 1
 1203 262 1087 374 918 537 c 2
 631 814 l 2
 424.393554688 1013.40722656 176 1270.90136719 16 1304 c 1
-10 705 m 1
 -10 764 l 1
 -10 820 l 1
 1770 820 l 5
 1770 763 l 5
 1770 705 l 5
 -10 705 l 1
EndSplineSet
EndChar
StartChar: d
Encoding: 100 100 13
Width: 1760
VWidth: 2573
Flags: W
HStem: 103 21G<1679 1732> 705 115<-10 1770> 872 21G<1263.98 1295 1415.98 1445> 1404 297G<278.4 388 1273.31 1304.39> 1701 20G<1273.31 1304.39>
LayerCount: 2
Fore
SplineSet
1074 1290 m 5xe8
 1295 878 l 5
 1289 872 l 5
 766 1290 l 5
 1298 1721 l 5
 1445 1261 l 5
 1439 1255 l 5
 1180 1480 l 5
 1074 1290 l 5xe8
16 1304 m 1
 344 1404 l 1xf0
 432 1333 595.929231702 1179.86213914 822 967 c 2
 1732 109 l 1
 1726 103 l 1
 1632 156 1488 200 1335 140 c 1
 1203 262 1087 374 918 537 c 2
 631 814 l 2
 424.393554688 1013.40722656 176 1270.90136719 16 1304 c 1
-10 705 m 1
 -10 764 l 1
 -10 820 l 1
 1770 820 l 1
 1770 763 l 1
 1770 705 l 1
 -10 705 l 1
EndSplineSet
EndChar
StartChar: e
Encoding: 101 101 6
Width: 1570
VWidth: 2573
Flags: W
HStem: 705 513<242 505 1031 1294> 705 115<-10 242 505 632 898 1031 1294 1580> 778 42<632 898>
VStem: 242 263<786 1138> 632 266<778 1579.86> 1031 263<786 1187.24>
LayerCount: 2
Back
SplineSet
612 778 m 29x3c
 612 1406 l 5
 612 1472 607 1619 584 1724 c 5
 818 1628 l 13
 818 770 l 29
 612 778 l 29x3c
EndSplineSet
Fore
SplineSet
632 778 m 1x3c
 632 1724 l 1
 681 1656 812 1588.62109375 898 1578 c 9
 898 770 l 25
 632 778 l 1x3c
1031 786 m 25
 1031 1218 l 1
 1384 1218 l 1x9c
 1336 1191 1294 1160 1294 1088 c 9
 1294 770 l 1
 1031 786 l 25
505 786 m 25
 242 770 l 1
 242 1138 l 17
 152 1218 l 1
 505 1218 l 1
 505 786 l 25
-10 705 m 1x5c
 -10 759 l 1
 -10 820 l 1
 1580 820 l 1
 1580 764 l 1
 1580 705 l 1
 -10 705 l 1x5c
EndSplineSet
EndChar
StartChar: f
Encoding: 102 102 28
Width: 1850
VWidth: 2573
Flags: W
HStem: 705 115<-10 1860> 943 21G<394 427.089> 1470 10<1821.34 1841> 1617 20G<394 427.089 1306.65 1502.29>
LayerCount: 2
Fore
SplineSet
562 1290 m 5
 394 1631 l 5
 400 1637 l 5
 870 1290 l 5
 400 943 l 5
 394 949 l 5
 562 1290 l 5
1841 1470 m 1
 1628 1428 1522.99804688 1353.78320312 1136 847 c 2
 884 517 l 2
 708.606445312 287.318359375 589 109 490 -13 c 1
 134 60 l 1
 256 154 338.249230769 212 687 660 c 2
 940 985 l 2
 1093.70996094 1182.453125 1272.296875 1429.17675781 1341 1542 c 1
 1841 1480 l 1
 1841 1470 l 1
-10 705 m 1
 -10 764 l 1
 -10 820 l 1
 1860 820 l 1
 1860 763 l 1
 1860 705 l 1
 -10 705 l 1
EndSplineSet
EndChar
StartChar: g
Encoding: 103 103 29
Width: 1760
VWidth: 2573
Flags: W
HStem: 103 21G<1679 1732> 705 115<-10 1770> 1163 21G<950 1030 1225.96 1257> 1287 10<1388.66 1446> 1389 15G<278.4 388 950 1038.57 1226.55 1257> 1701 20G<1226.55 1257>
LayerCount: 2
Fore
SplineSet
950 1163 m 29
 950 1409 l 5
 1446 1297 l 29
 1446 1287 l 5
 950 1163 l 29
1042 1290 m 5
 1257 875 l 5
 1251 869 l 5
 724 1290 l 5
 1251 1721 l 5
 1257 1715 l 5
 1042 1290 l 5
16 1304 m 1
 344 1404 l 1
 432 1333 595.929231702 1179.86213914 822 967 c 2
 1732 109 l 1
 1726 103 l 1
 1632 156 1488 200 1335 140 c 1
 1203 262 1087 374 918 537 c 2
 631 814 l 2
 424.393554688 1013.40722656 176 1270.90136719 16 1304 c 1
-10 705 m 1
 -10 764 l 1
 -10 820 l 1
 1770 820 l 1
 1770 763 l 1
 1770 705 l 1
 -10 705 l 1
EndSplineSet
EndChar
StartChar: h
Encoding: 104 104 19
Width: 2130
VWidth: 2573
Flags: W
HStem: 705 115<-10 2140> 1470 10<2101.34 2121> 1522 20G<1586.65 1782.29>
LayerCount: 2
Fore
SplineSet
612 390 m 1
 612 380 l 1
 502 346 400 260 346 221 c 1
 292 264 192 355 78 385 c 1
 78 395 l 1
 188 429 290 515 344 554 c 1
 398 511 498 420 612 390 c 1
2121 1470 m 5
 1908 1428 1802.99804688 1353.78320312 1416 847 c 6
 1164 517 l 6
 988.606445312 287.318359375 869 109 770 -13 c 5
 414 60 l 5
 536 154 618.249023438 212 967 660 c 6
 1220 985 l 6
 1373.70996094 1182.453125 1552.296875 1429.17675781 1621 1542 c 5
 2121 1480 l 5
 2121 1470 l 5
-10 705 m 1
 -10 764 l 1
 -10 820 l 1
 2140 820 l 5
 2140 763 l 5
 2140 705 l 5
 -10 705 l 1
EndSplineSet
EndChar
StartChar: i
Encoding: 105 105 3
Width: 1470
VWidth: 2573
Flags: W
HStem: 705 513<592 855 1002 1265> 705 115<-10 202 468 592 855 1002 1265 1480> 778 42<202 468>
VStem: 202 266<778 1570.25> 592 263<786 1187.24> 1002 263<786 1187.24>
LayerCount: 2
Back
SplineSet
202 778 m 25x3c
 202 1406 l 1
 202 1472 197 1619 174 1724 c 1
 408 1628 l 9
 408 770 l 25
 202 778 l 25x3c
EndSplineSet
Fore
SplineSet
1002 786 m 29x9c
 1002 1218 l 5
 1355 1218 l 5
 1307 1191 1265 1160 1265 1088 c 13
 1265 770 l 5
 1002 786 l 29x9c
592 786 m 29
 592 1218 l 5
 945 1218 l 5
 897 1191 855 1160 855 1088 c 13
 855 770 l 5
 592 786 l 29
202 778 m 5x3c
 202 1724 l 5
 256 1652 396.603515625 1575.8515625 468 1568 c 13
 468 770 l 29
 202 778 l 5x3c
-10 705 m 5x5c
 -10 759 l 5
 -10 820 l 5
 1480 820 l 5
 1480 764 l 5
 1480 705 l 5
 -10 705 l 5x5c
EndSplineSet
EndChar
StartChar: j
Encoding: 106 106 43
Width: 2490
VWidth: 2573
Flags: W
HStem: 705 115<-10 1977 2095 2500> 705 88<2024.51 2361> 872 21G<643.976 675 795.978 825> 1701 20G<653.313 684.391 989.034 1093.5>
LayerCount: 2
Fore
SplineSet
740 372 m 1x70
 917 412 1412.06835938 605.150390625 1945 805 c 2
 1977 817 l 1
 2095 793 l 1
 2361 793 l 1
 2041 647 l 2
 1600 445 1097 241 960 200 c 1
 740 372 l 1x70
454 1290 m 1
 675 878 l 1
 669 872 l 1
 146 1290 l 1
 678 1721 l 1
 825 1261 l 1
 819 1255 l 1
 560 1480 l 1
 454 1290 l 1
1963 671 m 1
 1727 788 l 2
 1395 952 1017 1134 776 1244 c 1
 1016 1422 l 1
 1171 1313 1593.64160156 1088.47460938 1853 955 c 2
 2263 744 l 1
 1963 671 l 1
-10 705 m 1xb0
 -10 764 l 1
 -10 820 l 1
 2500 820 l 1
 2500 763 l 1
 2500 705 l 1
 -10 705 l 1xb0
EndSplineSet
EndChar
StartChar: l
Encoding: 108 108 2
Width: 1200
VWidth: 2573
Flags: W
HStem: 705 115<-10 1210> 872 21G<663.976 695 815.978 845> 1701 20G<673.313 704.391> 1701 20G<673.313 704.391>
LayerCount: 2
Fore
SplineSet
474 1290 m 5xe0
 695 878 l 5
 689 872 l 5
 166 1290 l 5
 698 1721 l 5
 845 1261 l 5
 839 1255 l 5
 580 1480 l 5
 474 1290 l 5xe0
-10 705 m 1
 -10 759 l 1
 -10 820 l 1
 1210 820 l 1
 1210 764 l 1
 1210 705 l 1
 -10 705 l 1
EndSplineSet
EndChar
StartChar: m
Encoding: 109 109 15
Width: 1230
VWidth: 2573
Flags: W
HStem: 0 21G<447 835> 705 115<-10 1240> 1500 20G<574 952>
VStem: 574 261<80 1467.47>
LayerCount: 2
Fore
SplineSet
-10 705 m 5
 -10 764 l 5
 -10 820 l 5
 1240 820 l 1
 1240 763 l 1
 1240 705 l 1
 -10 705 l 5
574 80 m 9
 574 1520 l 25
 952 1520 l 17
 894 1487 835 1450 835 1353 c 9
 835 0 l 25
 447 0 l 17
 574 80 l 9
EndSplineSet
EndChar
StartChar: n
Encoding: 110 110 5
Width: 1560
VWidth: 2573
Flags: W
HStem: 0 21G<777 1165> 705 115<-10 1570> 872 21G<663.976 695 815.978 845> 1520 181G<673.313 704.391 904 1282> 1701 20G<673.313 704.391>
VStem: 904 261<80 1467.47>
LayerCount: 2
Fore
SplineSet
474 1290 m 1xec
 695 878 l 1
 689 872 l 1
 166 1290 l 1
 698 1721 l 1
 845 1261 l 1
 839 1255 l 1
 580 1480 l 1
 474 1290 l 1xec
-10 705 m 1
 -10 764 l 1
 -10 820 l 1
 1570 820 l 5
 1570 763 l 5
 1570 705 l 5
 -10 705 l 1
904 80 m 9
 904 1520 l 25
 1282 1520 l 17xf4
 1224 1487 1165 1450 1165 1353 c 9
 1165 0 l 25
 777 0 l 17
 904 80 l 9
EndSplineSet
EndChar
StartChar: o
Encoding: 111 111 21
Width: 1560
VWidth: 2573
Flags: W
HStem: -32 226<365 629 895 1197> 348 472<272 535 992 1255> 705 115<-10 272 535 629 895 992 1255 1570> 705 71<629 895>
VStem: 272 263<377.056 760> 629 266<194 768> 992 263<408 760>
LayerCount: 2
Back
SplineSet
632 778 m 5x3c
 632 1724 l 5
 681 1656 812 1588.62109375 898 1578 c 13
 898 770 l 29
 632 778 l 5x3c
1031 786 m 29
 1031 1218 l 5
 1384 1218 l 5x9c
 1336 1191 1294 1160 1294 1088 c 13
 1294 770 l 5
 1031 786 l 29
505 786 m 29
 242 770 l 5
 242 1138 l 21
 152 1218 l 5
 505 1218 l 5
 505 786 l 29
-10 705 m 5x5c
 -10 759 l 5
 -10 820 l 5
 1580 820 l 5
 1580 764 l 5
 1580 705 l 5
 -10 705 l 5x5c
EndSplineSet
Fore
SplineSet
-10 705 m 1xae
 -10 759 l 1
 -10 820 l 1
 1570 820 l 1
 1570 764 l 1
 1570 705 l 1
 -10 705 l 1xae
992 760 m 25
 1255 776 l 1x9e
 1255 408 l 17
 1345 348 l 1
 992 348 l 1xce
 992 760 l 25
535 760 m 25
 535 348 l 1
 182 348 l 1xce
 230 365 272 416 272 488 c 9
 272 776 l 1
 535 760 l 25
629 776 m 1x9e
 895 768 l 1
 895 194 l 1
 975 194 l 6
 1041 194 1188 199 1293 222 c 5
 1197 -32 l 5
 365 -32 l 1
 300 -135 l 1
 300 194 l 1
 629 194 l 1
 629 776 l 1x9e
EndSplineSet
EndChar
StartChar: p
Encoding: 112 112 1
Width: 1760
VWidth: 2573
Flags: W
HStem: 103 21G<1679 1732> 705 115<-10 1770> 943 21G<944 977.089> 1384 20G<278.4 388 944 977.089>
LayerCount: 2
Fore
SplineSet
16 1304 m 1
 344 1404 l 1
 432 1333 595.929231702 1179.86213914 822 967 c 2
 1732 109 l 1
 1726 103 l 1
 1632 156 1488 200 1335 140 c 1
 1203 262 1087 374 918 537 c 2
 631 814 l 2
 424.393554688 1013.40722656 176 1270.90136719 16 1304 c 1
1112 1290 m 5
 944 1631 l 5
 950 1637 l 5
 1420 1290 l 5
 950 943 l 5
 944 949 l 5
 1112 1290 l 5
-10 705 m 1
 -10 764 l 1
 -10 820 l 1
 1770 820 l 1
 1770 763 l 1
 1770 705 l 1
 -10 705 l 1
EndSplineSet
EndChar
StartChar: q
Encoding: 113 113 8
Width: 1990
VWidth: 2573
Flags: W
HStem: 103 21G<1679 1732> 705 115<-10 2000> 880 63G<904 937.666 1593.31 1624.39> 1305 99G<278.4 388 904 937.666 1583.98 1615 1735.98 1765>
LayerCount: 2
Fore
SplineSet
1394 1290 m 1
 1500 1100 l 1
 1759 1325 l 1
 1765 1319 l 1
 1618 859 l 1
 1086 1290 l 1
 1609 1708 l 1
 1615 1702 l 1
 1394 1290 l 1
16 1304 m 1
 344 1404 l 1
 432 1333 596.04278306 1180.04537597 822 967 c 2
 1732 109 l 1
 1726 103 l 1
 1632 156 1488 200 1335 140 c 1
 1203 262 1086.94428591 373.942274573 918 537 c 2
 631 814 l 2
 424.393480748 1013.40768583 176 1271 16 1304 c 1
1082 1290 m 1
 904 1631 l 1
 910 1637 l 1
 1390 1290 l 1
 910 943 l 1
 904 949 l 1
 1082 1290 l 1
-10 705 m 1
 -10 764 l 1
 -10 820 l 1
 2000 820 l 1
 2000 763 l 1
 2000 705 l 1
 -10 705 l 1
EndSplineSet
EndChar
StartChar: r
Encoding: 114 114 11
Width: 2510
VWidth: 2573
Flags: W
HStem: 705 115<-10 579 895 2003.67 2271.32 2520> 872 21G<663.976 695 815.978 845 1516 1549.26> 1701 20G<673.313 704.391 1405.59 1428.74 1516 1883.21> 1704 20G<1405.59 1428.74>
LayerCount: 2
Back
SplineSet
16 1304 m 1
 344 1404 l 1
 432 1333 595.929231702 1179.86213914 822 967 c 2
 1732 109 l 1
 1726 103 l 1
 1632 156 1488 200 1335 140 c 1
 1203 262 1087 374 918 537 c 2
 631 814 l 2
 424.393554688 1013.40722656 176 1270.90136719 16 1304 c 1
1112 1290 m 1
 944 1631 l 1
 950 1637 l 1
 1420 1290 l 1
 950 943 l 1
 944 949 l 1
 1112 1290 l 1
-10 705 m 1
 -10 764 l 1
 -10 820 l 1
 1770 820 l 1
 1770 763 l 1
 1770 705 l 1
 -10 705 l 1
EndSplineSet
Fore
SplineSet
474 1290 m 1xe0
 695 878 l 1
 689 872 l 1
 166 1290 l 1
 698 1721 l 1
 845 1261 l 1
 839 1255 l 1
 580 1480 l 1
 474 1290 l 1xe0
1516 1183.09863281 m 1
 1855 1184 l 1
 1911.42089844 1120 1960.42912242 1070.8470375 2045 992 c 2
 2271.31738281 781 l 1
 2003.66894531 721 l 9
 1843 871 l 2
 1715.0086905 990.492266461 1584.77441406 1110.51757812 1516 1183.09863281 c 1
1370 1290.90136719 m 1
 895 774 l 1
 579 806 l 1
 1424 1724 l 1xd0
 1554 1176 l 1
 1516 1183.09863281 l 1
 1370 1290.90136719 l 1
-10 705 m 1
 -10 764 l 1
 -10 820 l 1
 2520 820 l 1
 2520 763 l 1
 2520 705 l 1
 -10 705 l 1
EndSplineSet
EndChar
StartChar: s
Encoding: 115 115 9
Width: 2690
VWidth: 2573
Flags: W
HStem: 705 115<-10 179 482 2093 2435 2700> 964 212G<926 959.985 1574 1607.09> 1184 433G<926 1281.05 1574 1607.09>
LayerCount: 2
Back
SplineSet
2220 250 m 5
 1861 250 l 5
 1766 313 1759 331 1533 545 c 6
 1246 817 l 6
 1081 974 930 1125 849 1232 c 5
 421 771 l 5x70
 99 776 l 5
 189 819 285 912 388 1018 c 4
 660.99609375 1298.94726562 779 1443 855 1572 c 5
 867 1572 l 5
 945 1424 1119 1204 1357 975 c 6
 1644 698 l 6
 1851 499 1983 356 2220 250 c 5
EndSplineSet
Fore
SplineSet
1742 1290 m 1
 1574 1631 l 1
 1580 1637 l 1
 2050 1290 l 1
 1580 943 l 1
 1574 949 l 1
 1742 1290 l 1
926 1183.09863281 m 1
 1240 1184 l 1
 1322.10546875 1080 1273.95507812 1130.96679688 1370 1001 c 2
 1605 683 l 2
 1687.02832031 572 1778.63574219 446 1818 384 c 1
 2093 763 l 1
 2435 758 l 1
 2345 705 2288.03515625 631.97265625 2196 516 c 0
 1973 235 1883 91 1807 -38 c 1
 1797 -38 l 1
 1719 110 1593 280 1398 547 c 2
 1164 870 l 2
 1063.20507812 1014.97753906 982.774414062 1110.51757812 926 1183.09863281 c 1
840 1270.90136719 m 1
 482 774 l 1
 179 806 l 1
 854 1724 l 1
 964 1176 l 1
 926 1183.09863281 l 1
 840 1270.90136719 l 1
-10 705 m 1
 -10 764 l 1
 -10 820 l 1
 2700 820 l 1
 2700 763 l 1
 2700 705 l 1
 -10 705 l 1
EndSplineSet
EndChar
StartChar: t
Encoding: 116 116 44
Width: 1990
VWidth: 2573
Flags: W
HStem: 103 21G<1679 1732> 705 115<-10 2000> 893 50G<904 937.666 1583.98 1615 1735.98 1765> 1404 297G<278.4 388 904 937.666 1593.31 1624.39> 1701 20G<1593.31 1624.39>
LayerCount: 2
Back
SplineSet
1224 1290 m 1
 1425 878 l 1
 1402 859 l 1
 1006 1290 l 1
 1402 1721 l 1
 1428 1721 l 1
 1535 1281 l 1
 1310 1480 l 1
 1224 1290 l 1
1002 1290 m 1
 854 1631 l 1
 884 1651 l 1
 1220 1290 l 1
 884 929 l 1
 854 949 l 1
 1002 1290 l 1
95 1262 m 1
 335 1377 l 1
 434 1309 566 1181 792 967 c 2
 1079 695 l 2
 1291 495 1414 365 1655 258 c 1
 1405 140 l 1
 1251 251 1137 374 968 537 c 2
 681 814 l 2
 474 1013 332 1156 95 1262 c 1
0 715 m 1
 -50 764 l 1
 0 810 l 1
 1760 810 l 1
 1810 763 l 1
 1760 715 l 1
 0 715 l 1
EndSplineSet
Fore
SplineSet
1394 1290 m 5xe8
 1615 878 l 5
 1609 872 l 5
 1086 1290 l 5
 1618 1721 l 5
 1765 1261 l 5
 1759 1255 l 5
 1500 1480 l 5
 1394 1290 l 5xe8
16 1304 m 1
 344 1404 l 1xf0
 432 1333 595.929231702 1179.86213914 822 967 c 2
 1732 109 l 1
 1726 103 l 1
 1632 156 1488 200 1335 140 c 1
 1203 262 1087 374 918 537 c 2
 631 814 l 2
 424.393554688 1013.40722656 176 1270.90136719 16 1304 c 1
1082 1290 m 5
 904 1631 l 5
 910 1637 l 5
 1390 1290 l 5
 910 943 l 5
 904 949 l 5
 1082 1290 l 5
-10 705 m 1
 -10 764 l 1
 -10 820 l 1
 2000 820 l 1
 2000 763 l 1
 2000 705 l 1
 -10 705 l 1
EndSplineSet
EndChar
StartChar: u
Encoding: 117 117 27
Width: 1560
VWidth: 2573
Flags: W
HStem: -32 226<505 997> 348 472<652 915 1062 1325> 705 115<-10 239 505 652 915 1062 1325 1570> 705 71<239 505>
VStem: 239 266<194 768> 652 263<374.323 760> 1062 263<374.323 760>
LayerCount: 2
Back
SplineSet
632 778 m 5x3c
 632 1724 l 5
 681 1656 812 1588.62109375 898 1578 c 13
 898 770 l 29
 632 778 l 5x3c
1031 786 m 29
 1031 1218 l 5
 1384 1218 l 5x9c
 1336 1191 1294 1160 1294 1088 c 13
 1294 770 l 5
 1031 786 l 29
505 786 m 29
 242 770 l 5
 242 1138 l 21
 152 1218 l 5
 505 1218 l 5
 505 786 l 29
-10 705 m 5x5c
 -10 759 l 5
 -10 820 l 5
 1580 820 l 5
 1580 764 l 5
 1580 705 l 5
 -10 705 l 5x5c
EndSplineSet
Fore
SplineSet
-10 705 m 1xae
 -10 759 l 1
 -10 820 l 1
 1570 820 l 1
 1570 764 l 1
 1570 705 l 1
 -10 705 l 1xae
1325 760 m 25
 1325 348 l 1
 972 348 l 1xce
 1020 365 1062 406 1062 478 c 9
 1062 776 l 1x9e
 1325 760 l 25
915 760 m 25
 915 348 l 1
 562 348 l 1xce
 610 365 652 406 652 478 c 9
 652 776 l 1x9e
 915 760 l 25
239 776 m 1x9e
 505 768 l 1
 505 194 l 1
 775 194 l 2
 841 194 988 199 1093 222 c 1
 997 -32 l 1
 239 -32 l 1
 239 776 l 1x9e
EndSplineSet
EndChar
StartChar: v
Encoding: 118 118 12
Width: 1850
VWidth: 2573
Flags: W
HStem: 705 115<-10 1860> 1470 10<1821.34 1841> 1522 20G<1306.65 1502.29>
LayerCount: 2
Fore
SplineSet
1841 1470 m 1
 1628 1428 1522.99804688 1353.78320312 1136 847 c 2
 884 517 l 2
 708.606445312 287.318359375 589 109 490 -13 c 1
 134 60 l 1
 256 154 338.249230769 212 687 660 c 2
 940 985 l 2
 1093.70996094 1182.453125 1272.296875 1429.17675781 1341 1542 c 1
 1841 1480 l 1
 1841 1470 l 1
-10 705 m 1
 -10 764 l 1
 -10 820 l 1
 1860 820 l 1
 1860 763 l 1
 1860 705 l 1
 -10 705 l 1
EndSplineSet
EndChar
StartChar: w
Encoding: 119 119 16
Width: 1960
VWidth: 2573
Flags: W
HStem: 705 115<-10 1447 1565 1970> 705 88<1494.51 1831> 1402 20G<459.034 563.5>
LayerCount: 2
Fore
SplineSet
210 372 m 5x60
 387 412 882.068359375 605.150390625 1415 805 c 6
 1447 817 l 5
 1565 793 l 5
 1831 793 l 5
 1511 647 l 6
 1070 445 567 241 430 200 c 5
 210 372 l 5x60
1433 671 m 1
 1197 788 l 2
 865 952 487 1134 246 1244 c 1
 486 1422 l 1
 641 1313 1063.64179926 1088.47458624 1323 955 c 2
 1733 744 l 1
 1433 671 l 1
-10 705 m 1xa0
 -10 764 l 1
 -10 820 l 1
 1970 820 l 1
 1970 763 l 1
 1970 705 l 1
 -10 705 l 1xa0
EndSplineSet
EndChar
StartChar: x
Encoding: 120 120 7
Width: 1850
VWidth: 2573
Flags: W
HStem: 705 115<-10 1860> 983 201G<209 251.156 600 665.484 744.99 767> 1470 10<1821.34 1841> 1522 75G<209 251.156 600 672.5 745.362 767 1306.65 1502.29> 1701 20G<745.362 767>
LayerCount: 2
Back
SplineSet
1461 1370 m 5
 1246 1224 1096 989 927 757 c 6
 692 434 l 6
 554 244 407 43 275 -103 c 5
 9 -30 l 5
 228 117 381 336 555 570 c 6
 791 888 l 6
 976 1138 1126 1358 1205 1442 c 5
 1461 1370 l 5
384 1150 m 1
 555 738 l 1
 532 719 l 1
 146 1150 l 1
 532 1581 l 1
 558 1581 l 1
 635 1191 l 1
 440 1340 l 1
 384 1150 l 1
EndSplineSet
Fore
SplineSet
1841 1470 m 1
 1628 1428 1522.99804688 1353.78320312 1136 847 c 2
 884 517 l 2
 708.606445312 287.318359375 589 109 490 -13 c 1
 134 60 l 1
 256 154 338.249230769 212 687 660 c 2
 940 985 l 2
 1093.70996094 1182.453125 1272.296875 1429.17675781 1341 1542 c 1
 1841 1480 l 1
 1841 1470 l 1
600 1163 m 29
 600 1409 l 5
 1006 1297 l 29
 1006 1287 l 5
 600 1163 l 29
692 1290 m 5
 767 875 l 5
 761 869 l 5
 424 1290 l 5
 761 1721 l 5
 767 1715 l 5
 692 1290 l 5
412 1290 m 5
 209 1591 l 5
 215 1597 l 5
 770 1290 l 5
 215 983 l 5
 209 989 l 5
 412 1290 l 5
-10 705 m 1
 -10 764 l 1
 -10 820 l 1
 1860 820 l 1
 1860 763 l 1
 1860 705 l 1
 -10 705 l 1
EndSplineSet
EndChar
StartChar: y
Encoding: 121 121 53
Width: 1600
VWidth: 2573
Flags: W
HStem: 715 419<612 875 1012 1275> 715 95<-10 242 508 612 875 1012 1275 1610> 778 32<242 508> 1285 226<508 875.239>
VStem: 242 266<778 1285> 612 263<786 1103.24> 1012 263<786 1103.24>
LayerCount: 2
Fore
SplineSet
-10 715 m 1x5e
 -10 759 l 1
 -10 810 l 1
 1610 810 l 1
 1610 764 l 1
 1610 715 l 1
 -10 715 l 1x5e
612 786 m 1
 612 1134 l 1
 965 1134 l 1x9e
 917 1107 875 1076 875 1004 c 1
 875 770 l 1
 612 786 l 1
1012 786 m 1
 1012 1134 l 1
 1365 1134 l 1
 1317 1107 1275 1076 1275 1004 c 1
 1275 770 l 1
 1012 786 l 1
242 1511 m 1
 981 1511 l 1
 981 1502 l 1
 915.462155034 1454.77431301 878.870117188 1355.59960938 865 1285 c 1
 508 1285 l 1
 508 770 l 1
 242 778 l 1x3e
 242 1511 l 1
EndSplineSet
EndChar
StartChar: z
Encoding: 122 122 33
Width: 2690
VWidth: 2573
Flags: W
HStem: 705 115<-10 179 482 2093 2435 2700> 893 283G<926 959.985 1873.98 1905 2025.98 2055> 1701 23G<839.294 858.015 926 1281.05 1883.31 1914.39>
LayerCount: 2
Fore
SplineSet
1684 1290 m 1
 1905 878 l 1
 1899 872 l 1
 1376 1290 l 1
 1908 1721 l 1
 2055 1261 l 1
 2049 1255 l 1
 1790 1480 l 1
 1684 1290 l 1
926 1183.09863281 m 1
 1240 1184 l 1
 1322.10546875 1080 1273.95507812 1130.96679688 1370 1001 c 2
 1605 683 l 2
 1687.02832031 572 1778.63574219 446 1818 384 c 1
 2093 763 l 1
 2435 758 l 1
 2345 705 2288.03515625 631.97265625 2196 516 c 0
 1973 235 1883 91 1807 -38 c 1
 1797 -38 l 1
 1719 110 1593 280 1398 547 c 2
 1164 870 l 2
 1063.20507812 1014.97753906 982.774414062 1110.51757812 926 1183.09863281 c 1
840 1270.90136719 m 1
 482 774 l 1
 179 806 l 1
 854 1724 l 1
 964 1176 l 1
 926 1183.09863281 l 1
 840 1270.90136719 l 1
-10 705 m 1
 -10 764 l 1
 -10 820 l 1
 2700 820 l 1
 2700 763 l 1
 2700 705 l 1
 -10 705 l 1
EndSplineSet
EndChar
StartChar: guillemotleft
Encoding: 171 171 82
Width: 1070
VWidth: 2573
Flags: W
HStem: 0 21G<244 632> 705 115<376 1080> 1116 21G<782.256 827> 1297.36 215.018<386.118 576.579>
VStem: 244 261<80 705 820 1289.36> 376 129<705 820>
LayerCount: 2
Fore
SplineSet
376 705 m 25xf4
 376 820 l 25
 1080 820 l 17
 1080 762 l 1
 1080 705 l 9
 376 705 l 25xf4
505 1198 m 1xf8
 505 80 l 1
 632 0 l 9
 244 0 l 1
 244 1262 l 1
 244 1410.96013668 329.235656418 1512.37735799 442.999995158 1512.37735799 c 3
 561.407563263 1512.37735799 710.72010251 1402.49975272 827 1122 c 1
 821 1116 l 1
 743.512580244 1223.56075917 641.8203725 1297.35978292 575.000002264 1297.35978292 c 3
 533.16574603 1297.35978292 505 1267.30368606 505 1198 c 1xf8
EndSplineSet
EndChar
StartChar: uni00AD
Encoding: 173 173 76
Width: 1700
VWidth: 2573
Flags: W
HStem: 705 115<-10 760>
LayerCount: 2
Fore
SplineSet
-10 705 m 1
 -10 759 l 1
 -10 820 l 1
 368 820 l 5
 838.510742188 820 948 847.209960938 948 952 c 7
 948 1047.28222656 778 1216 570 1350.90136719 c 1
 576 1356.90136719 l 1
 1074 1216 1358 1049.00097656 1358 890 c 3
 1358 737.39453125 1256.27050781 648 1032 648 c 3
 857.454101562 648 458 705 114 705 c 1
 -10 705 l 1
EndSplineSet
EndChar
StartChar: questiondown
Encoding: 191 191 80
Width: 1210
VWidth: 2573
Flags: W
HStem: 0 21G<424 812> 705 115<556 1220> 1500 20G<424 812>
VStem: 556 129<705 820>
LayerCount: 2
Fore
SplineSet
29 512 m 5
 29 590.901367188 l 5
 981 128 l 5
 981 36 l 5
 29 512 l 5
89 736 m 1
 89 814.901367188 l 1
 1041 352 l 1
 1041 260 l 1
 89 736 l 1
556 705 m 25
 556 820 l 25
 1220 820 l 17
 1220 762 l 1
 1220 705 l 9
 556 705 l 25
685 1353 m 9
 685 80 l 17
 812 0 l 9
 424 0 l 25
 424 1520 l 25
 812 1520 l 17
 754 1487 685 1450 685 1353 c 9
EndSplineSet
EndChar
StartChar: eth
Encoding: 240 240 47
Width: 1850
VWidth: 2573
Flags: W
HStem: 705 115<-10 1860> 872 21G<733.976 765 885.978 915> 1470 10<1821.34 1841> 1701 20G<743.313 774.391 1306.65 1502.29>
LayerCount: 2
Fore
SplineSet
544 1290 m 5
 765 878 l 5
 759 872 l 5
 236 1290 l 5
 768 1721 l 5
 915 1261 l 5
 909 1255 l 5
 650 1480 l 5
 544 1290 l 5
1841 1470 m 1
 1628 1428 1522.99804688 1353.78320312 1136 847 c 2
 884 517 l 2
 708.606445312 287.318359375 589 109 490 -13 c 1
 134 60 l 1
 256 154 338.249230769 212 687 660 c 2
 940 985 l 2
 1093.70996094 1182.453125 1272.296875 1429.17675781 1341 1542 c 1
 1841 1480 l 1
 1841 1470 l 1
-10 705 m 1
 -10 764 l 1
 -10 820 l 1
 1860 820 l 1
 1860 763 l 1
 1860 705 l 1
 -10 705 l 1
EndSplineSet
EndChar
StartChar: oslash
Encoding: 248 248 54
Width: 1550
VWidth: 2573
Flags: W
HStem: 705 429<252 515 1002 1265> 705 115<-10 252 515 622 888 1002 1265 1560> 778 42<622 888> 1205 21G<337 351.5> 1285 226<395 622 888 1155.24>
VStem: 252 263<786 1054> 622 266<778 1285> 1002 263<786 1103.24>
LayerCount: 2
Fore
SplineSet
515 786 m 25x9f
 252 770 l 1
 252 1054 l 17
 162 1134 l 1
 515 1134 l 1
 515 786 l 25x9f
-10 705 m 1x5f
 -10 759 l 1
 -10 820 l 1
 1560 820 l 1
 1560 764 l 1
 1560 705 l 1
 -10 705 l 1x5f
1002 786 m 1
 1002 1134 l 1
 1355 1134 l 1x9f
 1307 1107 1265 1076 1265 1004 c 1
 1265 770 l 1
 1002 786 l 1
337 1511 m 1
 1261 1511 l 1
 1261 1502 l 1
 1195.46191406 1454.77441406 1158.87011719 1355.59960938 1145 1285 c 1
 888 1285 l 1
 888 770 l 1
 622 778 l 1x3f
 622 1285 l 1
 395 1285 l 1
 337 1205 l 1
 337 1511 l 1
EndSplineSet
EndChar
StartChar: ccaron
Encoding: 269 269 39
Width: 2220
VWidth: 2573
Flags: W
HStem: 169 11<2060.04 2068> 705 115<-10 448 625 2230> 740 80<448 625> 893 50G<164 197.666 843.976 875 995.978 1025> 1637 64G<164 197.666 665.808 788.342 853.313 884.391 1875 2031> 1701 20G<853.313 884.391>
LayerCount: 2
Fore
SplineSet
654 1290 m 1x94
 875 878 l 1
 869 872 l 1
 346 1290 l 1
 878 1721 l 1
 1025 1261 l 1
 1019 1255 l 1
 760 1480 l 1
 654 1290 l 1x94
342 1290 m 1
 164 1631 l 1
 170 1637 l 1x98
 650 1290 l 1
 170 943 l 1
 164 949 l 1
 342 1290 l 1
2031 1404 m 1
 1943 1360.90136719 1825 1195 1810 1100.0546875 c 1
 1582.84667969 1008.00390625 1306.27148438 897.485351562 766 678 c 2
 734 665 l 1
 625 740 l 1xb0
 350 729 l 1
 670 865 l 2
 1183.60546875 1083.28222656 1723 1300.90136719 2027 1414 c 1
 2031 1404 l 1
748 851 m 1
 984 734 l 2
 1315.76367188 569.5234375 1828 290 2069 180 c 1
 2068 169 l 1
 1897 192 1809.17871094 161.35546875 1713 70 c 1
 1558 169 1123 407 868 547 c 2
 448 778 l 1
 748 851 l 1
-10 705 m 1xd0
 -10 764 l 1
 -10 820 l 1
 2230 820 l 1
 2230 763 l 1
 2230 705 l 1
 -10 705 l 1xd0
EndSplineSet
EndChar
StartChar: uni0137
Encoding: 311 311 41
Width: 1760
VWidth: 2573
Flags: W
HStem: 103 21G<1679 1732> 210 10<106 129.88> 221 10<879.8 892> 705 115<-10 1770> 983 201G<769 811.156 1160 1225.48 1304.99 1327> 1389 15G<278.4 388 769 811.156 1160 1232.5 1305.36 1327> 1701 20G<1305.36 1327>
VStem: 492 10<-188 -164.968 373 654>
LayerCount: 2
Back
SplineSet
146 210 m 5
 146 220 l 5
 407 260 452 328 488 614 c 5
 498 614 l 5
 542 333 589 265 852 231 c 5
 852 221 l 5
 588 164 546 111 502 -148 c 5
 492 -148 l 5
 456 102 406 173 146 210 c 5
EndSplineSet
Fore
SplineSet
106 210 m 5
 106 220 l 5
 367 260 452 368 488 654 c 5
 498 654 l 5
 542 373 629 265 892 231 c 5
 892 221 l 5
 628 164 546 71 502 -188 c 5
 492 -188 l 5
 456 62 366 173 106 210 c 5
1160 1163 m 25
 1160 1409 l 1
 1566 1297 l 25
 1566 1287 l 1
 1160 1163 l 25
1252 1290 m 1
 1327 875 l 1
 1321 869 l 1
 984 1290 l 1
 1321 1721 l 1
 1327 1715 l 1
 1252 1290 l 1
972 1290 m 1
 769 1591 l 1
 775 1597 l 1
 1330 1290 l 1
 775 983 l 1
 769 989 l 1
 972 1290 l 1
16 1304 m 1
 344 1404 l 1
 432 1333 595.929231702 1179.86213914 822 967 c 2
 1732 109 l 1
 1726 103 l 1
 1632 156 1488 200 1335 140 c 1
 1203 262 1087 374 918 537 c 2
 631 814 l 2
 424.393554688 1013.40722656 176 1270.90136719 16 1304 c 1
-10 705 m 1
 -10 764 l 1
 -10 820 l 1
 1770 820 l 1
 1770 763 l 1
 1770 705 l 1
 -10 705 l 1
EndSplineSet
EndChar
StartChar: eng
Encoding: 331 331 40
Width: 1610
VWidth: 2573
Flags: W
HStem: 0 21G<827 1215> 705 115<-10 1620> 1163 21G<360 440 635.964 667> 1287 10<798.656 856> 1389 131G<360 448.571 636.545 667 954 1332> 1701 20G<636.545 667>
VStem: 954 261<80 1467.47>
LayerCount: 2
Fore
SplineSet
360 1163 m 29
 360 1409 l 5
 856 1297 l 29
 856 1287 l 5
 360 1163 l 29
452 1290 m 5
 667 875 l 5
 661 869 l 5
 134 1290 l 5
 661 1721 l 5
 667 1715 l 5
 452 1290 l 5
-10 705 m 1
 -10 764 l 1
 -10 820 l 1
 1620 820 l 5
 1620 763 l 5
 1620 705 l 5
 -10 705 l 1
954 80 m 13
 954 1520 l 29
 1332 1520 l 21
 1274 1487 1215 1450 1215 1353 c 13
 1215 0 l 29
 827 0 l 21
 954 80 l 13
EndSplineSet
EndChar
StartChar: scaron
Encoding: 353 353 42
Width: 2690
VWidth: 2573
Flags: W
HStem: 705 115<-10 179 482 2093 2435 2700> 893 283G<926 959.985 1384 1417.67 2063.98 2095 2215.98 2245> 1184 517G<926 1281.05 1384 1417.67 2073.31 2104.39> 1701 20G<2073.31 2104.39>
LayerCount: 2
Fore
SplineSet
1874 1290 m 5xd0
 2095 878 l 5
 2089 872 l 5
 1566 1290 l 5
 2098 1721 l 5
 2245 1261 l 5
 2239 1255 l 5
 1980 1480 l 5
 1874 1290 l 5xd0
1562 1290 m 5
 1384 1631 l 5
 1390 1637 l 5
 1870 1290 l 5
 1390 943 l 5
 1384 949 l 5
 1562 1290 l 5
926 1183.09863281 m 1
 1240 1184 l 1xe0
 1322.10546875 1080 1273.95507812 1130.96679688 1370 1001 c 2
 1605 683 l 2
 1687.02832031 572 1778.63574219 446 1818 384 c 1
 2093 763 l 1
 2435 758 l 1
 2345 705 2288.03515625 631.97265625 2196 516 c 0
 1973 235 1883 91 1807 -38 c 1
 1797 -38 l 1
 1719 110 1593 280 1398 547 c 2
 1164 870 l 2
 1063.20507812 1014.97753906 982.774414062 1110.51757812 926 1183.09863281 c 1
840 1270.90136719 m 1
 482 774 l 1
 179 806 l 1
 854 1724 l 1
 964 1176 l 1
 926 1183.09863281 l 1
 840 1270.90136719 l 1
-10 705 m 1
 -10 764 l 1
 -10 820 l 1
 2700 820 l 1
 2700 763 l 1
 2700 705 l 1
 -10 705 l 1
EndSplineSet
EndChar
StartChar: uni0163
Encoding: 355 355 46
Width: 2440
VWidth: 2573
Flags: W
HStem: 210 10<96 119.766> 221 10<789.829 802> 705 115<-10 2450> 893 50G<744 777.666 1423.98 1455 1575.98 1605> 1470 10<2411.34 2431> 1637 64G<744 777.666 1433.31 1464.39 1896.65 2092.29> 1701 20G<1433.31 1464.39>
VStem: 442 10<-148 -125.082 333 614>
LayerCount: 2
Fore
SplineSet
96 210 m 1xf9
 96 220 l 1
 357 260 402 328 438 614 c 1
 448 614 l 1
 492 333 539 265 802 231 c 1
 802 221 l 1
 538 164 496 111 452 -148 c 1
 442 -148 l 1
 406 102 356 173 96 210 c 1xf9
1234 1290 m 1
 1455 878 l 1
 1449 872 l 1
 926 1290 l 1
 1458 1721 l 1xfb
 1605 1261 l 1
 1599 1255 l 1
 1340 1480 l 1
 1234 1290 l 1
922 1290 m 1
 744 1631 l 1
 750 1637 l 1xfd
 1230 1290 l 1
 750 943 l 1
 744 949 l 1
 922 1290 l 1
2431 1470 m 1
 2218 1428 2112.99804688 1353.78320312 1726 847 c 2
 1474 517 l 2
 1298.60644531 287.318359375 1179 109 1080 -13 c 1
 724 60 l 1
 846 154 928.249023438 212 1277 660 c 2
 1530 985 l 2
 1683.70996094 1182.453125 1862.296875 1429.17675781 1931 1542 c 1
 2431 1480 l 1
 2431 1470 l 1
-10 705 m 1
 -10 764 l 1
 -10 820 l 1
 2450 820 l 1
 2450 763 l 1
 2450 705 l 1
 -10 705 l 1
EndSplineSet
EndChar
StartChar: tcaron
Encoding: 357 357 45
Width: 1990
VWidth: 2573
Flags: W
HStem: 103 21G<1679 1732> 705 115<-10 2000> 893 50G<904 937.666 1583.98 1615 1735.98 1765> 1404 297G<278.4 388 904 937.666 1593.31 1624.39> 1701 20G<1593.31 1624.39>
LayerCount: 2
Fore
SplineSet
762 390 m 5xe0
 762 380 l 5
 652 346 550 260 496 221 c 5
 442 264 342 355 228 385 c 5
 228 395 l 5
 338 429 440 515 494 554 c 5
 548 511 648 420 762 390 c 5xe0
1394 1290 m 1
 1615 878 l 1
 1609 872 l 1
 1086 1290 l 1
 1618 1721 l 1xe8
 1765 1261 l 1
 1759 1255 l 1
 1500 1480 l 1
 1394 1290 l 1
16 1304 m 1
 344 1404 l 1xf0
 432 1333 595.929231702 1179.86213914 822 967 c 2
 1732 109 l 1
 1726 103 l 1
 1632 156 1488 200 1335 140 c 1
 1203 262 1087 374 918 537 c 2
 631 814 l 2
 424.393554688 1013.40722656 176 1270.90136719 16 1304 c 1
1082 1290 m 1
 904 1631 l 1
 910 1637 l 1
 1390 1290 l 1
 910 943 l 1
 904 949 l 1
 1082 1290 l 1
-10 705 m 1
 -10 764 l 1
 -10 820 l 1
 2000 820 l 1
 2000 763 l 1
 2000 705 l 1
 -10 705 l 1
EndSplineSet
EndChar
StartChar: zcaron
Encoding: 382 382 48
Width: 2690
VWidth: 2573
Flags: W
HStem: 705 115<-10 179 482 2093 2435 2700> 1176 8G<926 959.985 1359 1401.16 1750 1815.48 1894.99 1917> 1184 205G<926 1281.05 1359 1401.16 1750 1822.5 1895.36 1917> 1701 20G<1895.36 1917>
LayerCount: 2
Fore
SplineSet
1750 1163 m 25x90
 1750 1409 l 1
 2156 1297 l 25
 2156 1287 l 1
 1750 1163 l 25x90
1842 1290 m 1
 1917 875 l 1
 1911 869 l 1
 1574 1290 l 1
 1911 1721 l 1
 1917 1715 l 1
 1842 1290 l 1
1562 1290 m 1
 1359 1591 l 1
 1365 1597 l 1
 1920 1290 l 1
 1365 983 l 1
 1359 989 l 1
 1562 1290 l 1
926 1183.09863281 m 1
 1240 1184 l 1xb0
 1322.10546875 1080 1273.95507812 1130.96679688 1370 1001 c 2
 1605 683 l 2
 1687.02832031 572 1778.63574219 446 1818 384 c 1
 2093 763 l 1
 2435 758 l 1
 2345 705 2288.03515625 631.97265625 2196 516 c 0
 1973 235 1883 91 1807 -38 c 1
 1797 -38 l 1
 1719 110 1593 280 1398 547 c 2
 1164 870 l 2
 1063.20507812 1014.97753906 982.774414062 1110.51757812 926 1183.09863281 c 1
840 1270.90136719 m 1
 482 774 l 1
 179 806 l 1
 854 1724 l 1
 964 1176 l 1xd0
 926 1183.09863281 l 1
 840 1270.90136719 l 1
-10 705 m 1
 -10 764 l 1
 -10 820 l 1
 2700 820 l 1
 2700 763 l 1
 2700 705 l 1
 -10 705 l 1
EndSplineSet
EndChar
StartChar: uni01C6
Encoding: 454 454 38
Width: 2220
VWidth: 2573
Flags: W
HStem: 169 11<2060.04 2068> 705 115<-10 448 625 2230> 740 80<448 625> 851 850G<665.808 788.342 898.915 925.089 1875 2031> 927 241G<146 182.87 1079.56 1114> 1701 20G<898.915 925.089>
LayerCount: 2
Back
SplineSet
1775 1330.90136719 m 1x70
 1723.78320312 1319.32714844 1705 1234 1690 1139.0546875 c 1
 1473.140625 1053.54785156 1084.82058589 906.131598155 716 737 c 2
 684 722 l 1
 300 729 l 1
 620 875 l 2
 1061.29975104 1076.34301141 1505 1290.90136719 1775 1350.90136719 c 1
 1775 1330.90136719 l 1x70
698 791 m 1
 934 674 l 2
 1265.76392592 509.523816387 1459 404 1700 294 c 1
 1655 204 1650 99 1675 55 c 1
 1665 40 l 1
 1510 149 1073 407 818 547 c 2
 398 778 l 1
 698 791 l 1
862 1366 m 5
 152 906 l 5
 146 912 l 5
 918 1721 l 5x38
 1114 1168 l 5
 1104 1168 l 5
 862 1366 l 5
0 715 m 1xb0
 -50 764 l 1
 0 810 l 1
 2190 810 l 1
 2240 763 l 1
 2190 715 l 1
 0 715 l 1xb0
EndSplineSet
Fore
SplineSet
862 1366 m 5x8c
 152 906 l 5
 146 912 l 5
 918 1721 l 5
 1114 1168 l 5
 1104 1168 l 5
 862 1366 l 5x8c
2031 1404 m 1
 1943 1360.90136719 1825 1195 1810 1100.0546875 c 1
 1582.84667969 1008.00390625 1306.27148438 897.485351562 766 678 c 2
 734 665 l 1
 625 740 l 1xa0
 350 729 l 1
 670 865 l 2
 1183.60546875 1083.28222656 1723 1300.90136719 2027 1414 c 1
 2031 1404 l 1
748 851 m 1x90
 984 734 l 2
 1315.76367188 569.5234375 1828 290 2069 180 c 1
 2068 169 l 1
 1897 192 1809.17871094 161.35546875 1713 70 c 1
 1558 169 1123 407 868 547 c 2
 448 778 l 1
 748 851 l 1x90
-10 705 m 1xc0
 -10 764 l 1
 -10 820 l 1
 2230 820 l 1
 2230 763 l 1
 2230 705 l 1
 -10 705 l 1xc0
EndSplineSet
EndChar
StartChar: uni01E5
Encoding: 485 485 52
Width: 1990
VWidth: 2573
Flags: W
HStem: 103 21G<1679 1732> 210 10<106 129.88> 221 10<879.8 892> 705 115<-10 2000> 880 63G<904 937.666 1593.31 1624.39> 1305 99G<278.4 388 904 937.666 1583.98 1615 1735.98 1765>
VStem: 492 10<-188 -164.968 373 654>
LayerCount: 2
Fore
SplineSet
106 210 m 5
 106 220 l 5
 367 260 452 368 488 654 c 5
 498 654 l 5
 542 373 629 265 892 231 c 5
 892 221 l 5
 628 164 546 71 502 -188 c 5
 492 -188 l 5
 456 62 366 173 106 210 c 5
1394 1290 m 1
 1500 1100 l 1
 1759 1325 l 1
 1765 1319 l 1
 1618 859 l 1
 1086 1290 l 1
 1609 1708 l 1
 1615 1702 l 1
 1394 1290 l 1
16 1304 m 1
 344 1404 l 1
 432 1333 596.04278306 1180.04537597 822 967 c 2
 1732 109 l 1
 1726 103 l 1
 1632 156 1488 200 1335 140 c 1
 1203 262 1086.94428591 373.942274573 918 537 c 2
 631 814 l 2
 424.393480748 1013.40768583 176 1271 16 1304 c 1
1082 1290 m 1
 904 1631 l 1
 910 1637 l 1
 1390 1290 l 1
 910 943 l 1
 904 949 l 1
 1082 1290 l 1
-10 705 m 1
 -10 764 l 1
 -10 820 l 1
 2000 820 l 1
 2000 763 l 1
 2000 705 l 1
 -10 705 l 1
EndSplineSet
EndChar
StartChar: uni01E9
Encoding: 489 489 50
Width: 1760
VWidth: 2573
Flags: W
HStem: 103 21G<1679 1732> 705 115<-10 1770> 983 201G<769 811.156 1160 1225.48 1304.99 1327> 1389 15G<278.4 388 769 811.156 1160 1232.5 1305.36 1327> 1701 20G<1305.36 1327>
LayerCount: 2
Fore
SplineSet
762 390 m 5
 762 380 l 5
 652 346 550 260 496 221 c 5
 442 264 342 355 228 385 c 5
 228 395 l 5
 338 429 440 515 494 554 c 5
 548 511 648 420 762 390 c 5
1160 1163 m 25
 1160 1409 l 1
 1566 1297 l 25
 1566 1287 l 1
 1160 1163 l 25
1252 1290 m 1
 1327 875 l 1
 1321 869 l 1
 984 1290 l 1
 1321 1721 l 1
 1327 1715 l 1
 1252 1290 l 1
972 1290 m 1
 769 1591 l 1
 775 1597 l 1
 1330 1290 l 1
 775 983 l 1
 769 989 l 1
 972 1290 l 1
16 1304 m 1
 344 1404 l 1
 432 1333 595.929231702 1179.86213914 822 967 c 2
 1732 109 l 1
 1726 103 l 1
 1632 156 1488 200 1335 140 c 1
 1203 262 1087 374 918 537 c 2
 631 814 l 2
 424.393554688 1013.40722656 176 1270.90136719 16 1304 c 1
-10 705 m 1
 -10 764 l 1
 -10 820 l 1
 1770 820 l 1
 1770 763 l 1
 1770 705 l 1
 -10 705 l 1
EndSplineSet
EndChar
StartChar: uni0252
Encoding: 594 594 60
Width: 1660
VWidth: 2573
Flags: W
HStem: -32 226<725 1109> 348 462<282 545 702 965> 715 95<-10 282 545 702 965 1109 1375 1670> 715 61<1109 1375>
VStem: 282 263<384.681 760> 702 263<377.056 760> 1109 266<194 768>
LayerCount: 2
Fore
SplineSet
965 760 m 25x9e
 965 348 l 1
 612 348 l 1xce
 660 365 702 416 702 488 c 9
 702 776 l 1
 965 760 l 25x9e
545 760 m 25
 545 348 l 1
 182 348 l 1xce
 230 365 282 416 282 488 c 9
 282 776 l 1x9e
 545 760 l 25
-10 715 m 1xae
 -10 759 l 1
 -10 810 l 1
 1670 810 l 1
 1670 764 l 1
 1670 715 l 1
 -10 715 l 1xae
1109 776 m 1x9e
 1375 768 l 1
 1375 -32 l 1
 725 -32 l 1
 660 -135 l 1
 660 194 l 1
 1109 194 l 1
 1109 776 l 1x9e
EndSplineSet
EndChar
StartChar: uni0259
Encoding: 601 601 62
Width: 1960
VWidth: 2573
Flags: W
HStem: 119 260<767.343 1177.42> 705 115<-10 355 545 1970> 909 21G<506.667 800> 1270.9 198.099<738.298 1130.36>
VStem: 355 190<585.719 744> 1350 275<567.712 1038.77>
LayerCount: 2
Fore
SplineSet
355 744 m 1
 545 744 l 1
 565 504 751 379 985 379 c 3
 1230.45898438 379 1350 538.848632812 1350 789 c 3
 1350 1084 1214 1270.90136719 919 1270.90136719 c 3
 704 1270.90136719 600 1134 555 1069 c 1
 800 919 l 1
 800 909 l 1
 360 939 l 1
 395 1229 630 1469 984 1469 c 3
 1342.11035156 1469 1625 1209.02832031 1625 779 c 3
 1625 379 1340 119 986 119 c 3
 599.961914062 119 356 433 355 744 c 1
-10 705 m 1
 -10 764 l 1
 -10 820 l 1
 1970 820 l 1
 1970 763 l 1
 1970 705 l 1
 -10 705 l 1
EndSplineSet
EndChar
StartChar: uni0262
Encoding: 610 610 35
Width: 1760
VWidth: 2573
Flags: W
HStem: 103 21G<1679 1732> 705 115<-10 1770> 859 21G<1283.31 1314.39> 1305 99G<278.4 388 1273.98 1305 1425.98 1455>
LayerCount: 2
Fore
SplineSet
1084 1290 m 5
 1190 1100 l 5
 1449 1325 l 5
 1455 1319 l 5
 1308 859 l 5
 776 1290 l 5
 1299 1708 l 5
 1305 1702 l 5
 1084 1290 l 5
16 1304 m 1
 344 1404 l 1
 432 1333 595.929231702 1179.86213914 822 967 c 2
 1732 109 l 1
 1726 103 l 1
 1632 156 1488 200 1335 140 c 1
 1203 262 1087 374 918 537 c 2
 631 814 l 2
 424.393554688 1013.40722656 176 1270.90136719 16 1304 c 1
-10 705 m 1
 -10 764 l 1
 -10 820 l 1
 1770 820 l 1
 1770 763 l 1
 1770 705 l 1
 -10 705 l 1
EndSplineSet
EndChar
StartChar: uni0263
Encoding: 611 611 36
Width: 1850
VWidth: 2573
Flags: W
HStem: 705 115<-10 1860> 1163 21G<380 460 655.964 687> 1287 10<818.656 876> 1389 20G<380 468.571 656.545 687 1306.5 1502.29> 1470 10<1821.34 1841> 1701 20G<656.545 687>
LayerCount: 2
Fore
SplineSet
380 1163 m 29
 380 1409 l 5
 876 1297 l 29
 876 1287 l 5
 380 1163 l 29
472 1290 m 5
 687 875 l 5
 681 869 l 5
 154 1290 l 5
 681 1721 l 5
 687 1715 l 5
 472 1290 l 5
1841 1470 m 1
 1628 1428 1523 1354 1136 847 c 2
 884 517 l 2
 709 287 589 109 490 -13 c 1
 134 60 l 1
 256 154 338 212 687 660 c 2
 940 985 l 2
 1094 1182 1272 1429 1341 1542 c 1
 1841 1480 l 1
 1841 1470 l 1
-10 705 m 1
 -10 764 l 1
 -10 820 l 1
 1860 820 l 1
 1860 763 l 1
 1860 705 l 1
 -10 705 l 1
EndSplineSet
EndChar
StartChar: uni026C
Encoding: 620 620 20
Width: 2110
VWidth: 2573
Flags: W
HStem: 705 115<-10 156 444 1543 1895 2120> 872 21G<913.976 945 1065.98 1095> 1701 20G<923.313 954.391> 1701 20G<923.313 954.391>
LayerCount: 2
Fore
SplineSet
724 1290 m 1xe0
 945 878 l 1
 939 872 l 1
 416 1290 l 1
 948 1721 l 1
 1095 1261 l 1
 1089 1255 l 1
 830 1480 l 1
 724 1290 l 1xe0
444 809.3046875 m 1
 635 683 l 2
 760.453125 600.040039062 1044.63574219 391 1108 341 c 1
 1543 763 l 1
 1895 758 l 1
 1805 705 1721.16113281 620.217773438 1616 516 c 0
 1393 295 1213 91 1137 -38 c 1
 1127 -38 l 1
 1049 90 711.713867188 347.015625 428 547 c 2
 156 738.727539062 l 1
 245.333007812 719.952148438 354.666992188 780.598632812 444 809.3046875 c 1
-10 705 m 1
 -10 764 l 1
 -10 820 l 1
 2120 820 l 1
 2120 763 l 1
 2120 705 l 1
 -10 705 l 1
EndSplineSet
EndChar
StartChar: uni026E
Encoding: 622 622 34
Width: 2110
VWidth: 2573
Flags: W
HStem: 705 115<-10 156 444 1543 1895 2120> 927 241G<386 422.87 1319.56 1354> 1701 20G<1138.91 1165.09> 1701 20G<1138.91 1165.09>
LayerCount: 2
Fore
SplineSet
1102 1366 m 5xe0
 392 906 l 5
 386 912 l 5
 1158 1721 l 5
 1354 1168 l 5
 1344 1168 l 5
 1102 1366 l 5xe0
444 809.3046875 m 1
 635 683 l 2
 760.453125 600.040039062 1044.63574219 391 1108 341 c 1
 1543 763 l 1
 1895 758 l 1
 1805 705 1721.16113281 620.217773438 1616 516 c 0
 1393 295 1213 91 1137 -38 c 1
 1127 -38 l 1
 1049 90 711.713867188 347.015625 428 547 c 2
 156 738.727539062 l 1
 245.333007812 719.952148438 354.666992188 780.598632812 444 809.3046875 c 1
-10 705 m 1
 -10 764 l 1
 -10 820 l 1
 2120 820 l 1
 2120 763 l 1
 2120 705 l 1
 -10 705 l 1
EndSplineSet
EndChar
StartChar: uni0274
Encoding: 628 628 37
Width: 1560
VWidth: 2573
Flags: W
HStem: 0 21G<777 1165> 705 115<-10 1570> 859 21G<673.313 704.391> 1305 215G<663.976 695 815.978 845 904 1282>
VStem: 904 261<80 1467.47>
LayerCount: 2
Fore
SplineSet
474 1290 m 1
 580 1100 l 1
 839 1325 l 1
 845 1319 l 1
 698 859 l 1
 166 1290 l 1
 689 1708 l 1
 695 1702 l 1
 474 1290 l 1
-10 705 m 1
 -10 764 l 1
 -10 820 l 1
 1570 820 l 1
 1570 763 l 1
 1570 705 l 1
 -10 705 l 1
904 80 m 9
 904 1520 l 25
 1282 1520 l 17
 1224 1487 1165 1450 1165 1353 c 9
 1165 0 l 25
 777 0 l 17
 904 80 l 9
EndSplineSet
EndChar
StartChar: uni0281
Encoding: 641 641 49
Width: 1850
VWidth: 2573
Flags: W
HStem: 705 115<-10 1860> 859 21G<673.313 704.391> 1305 403G<663.976 695 815.978 845 1306.5 1502.29> 1470 10<1821.34 1841>
LayerCount: 2
Fore
SplineSet
474 1290 m 5xe0
 580 1100 l 5
 839 1325 l 5
 845 1319 l 5
 698 859 l 5
 166 1290 l 5
 689 1708 l 5
 695 1702 l 5
 474 1290 l 5xe0
1841 1470 m 1xd0
 1628 1428 1523 1354 1136 847 c 2
 884 517 l 2
 709 287 589 109 490 -13 c 1
 134 60 l 1
 256 154 338 212 687 660 c 2
 940 985 l 2
 1094 1182 1272 1429 1341 1542 c 1
 1841 1480 l 1
 1841 1470 l 1xd0
-10 705 m 1
 -10 764 l 1
 -10 820 l 1
 1860 820 l 1
 1860 763 l 1
 1860 705 l 1
 -10 705 l 1
EndSplineSet
EndChar
StartChar: theta
Encoding: 952 952 55
Width: 1900
VWidth: 2573
Flags: W
HStem: 705 115<-10 1910> 893 50G<204 237.666 883.976 915 1035.98 1065> 1470 10<1871.34 1891> 1637 64G<204 237.666 893.313 924.391 1356.65 1552.29> 1701 20G<893.313 924.391>
LayerCount: 2
Fore
SplineSet
694 1290 m 5xe8
 915 878 l 5
 909 872 l 5
 386 1290 l 5
 918 1721 l 5
 1065 1261 l 5
 1059 1255 l 5
 800 1480 l 5
 694 1290 l 5xe8
382 1290 m 5
 204 1631 l 5
 210 1637 l 5xf0
 690 1290 l 5
 210 943 l 5
 204 949 l 5
 382 1290 l 5
1891 1470 m 5
 1678 1428 1572.99804688 1353.78320312 1186 847 c 6
 934 517 l 6
 758.606445312 287.318359375 639 109 540 -13 c 5
 184 60 l 5
 306 154 388.249023438 212 737 660 c 6
 990 985 l 6
 1143.70996094 1182.453125 1322.296875 1429.17675781 1391 1542 c 5
 1891 1480 l 5
 1891 1470 l 5
-10 705 m 1
 -10 764 l 1
 -10 820 l 1
 1910 820 l 5
 1910 763 l 5
 1910 705 l 5
 -10 705 l 1
EndSplineSet
EndChar
StartChar: pi
Encoding: 960 960 58
Width: 1760
VWidth: 2573
Flags: W
HStem: 103 21G<1679 1732> 705 115<-10 1770> 943 21G<944 977.089> 1384 20G<278.4 388 944 977.089>
LayerCount: 2
Fore
SplineSet
612 390 m 1
 612 380 l 1
 502 346 400 260 346 221 c 1
 292 264 192 355 78 385 c 1
 78 395 l 1
 188 429 290 515 344 554 c 1
 398 511 498 420 612 390 c 1
16 1304 m 1
 344 1404 l 1
 432 1333 595.929231702 1179.86213914 822 967 c 2
 1732 109 l 1
 1726 103 l 1
 1632 156 1488 200 1335 140 c 1
 1203 262 1087 374 918 537 c 2
 631 814 l 2
 424.393554688 1013.40722656 176 1270.90136719 16 1304 c 1
1112 1290 m 1
 944 1631 l 1
 950 1637 l 1
 1420 1290 l 1
 950 943 l 1
 944 949 l 1
 1112 1290 l 1
-10 705 m 1
 -10 764 l 1
 -10 820 l 1
 1770 820 l 1
 1770 763 l 1
 1770 705 l 1
 -10 705 l 1
EndSplineSet
EndChar
StartChar: phi
Encoding: 966 966 57
Width: 1760
VWidth: 2573
Flags: W
HStem: 103 21G<1679 1732> 210 10<106 129.88> 221 10<879.8 892> 705 115<-10 1770> 943 21G<944 977.089> 1384 20G<278.4 388 944 977.089>
VStem: 492 10<-188 -164.968 373 654>
LayerCount: 2
Fore
SplineSet
106 210 m 5
 106 220 l 5
 367 260 452 368 488 654 c 5
 498 654 l 5
 542 373 629 265 892 231 c 5
 892 221 l 5
 628 164 546 71 502 -188 c 5
 492 -188 l 5
 456 62 366 173 106 210 c 5
16 1304 m 1
 344 1404 l 1
 432 1333 595.929231702 1179.86213914 822 967 c 2
 1732 109 l 1
 1726 103 l 1
 1632 156 1488 200 1335 140 c 1
 1203 262 1087 374 918 537 c 2
 631 814 l 2
 424.393554688 1013.40722656 176 1270.90136719 16 1304 c 1
1112 1290 m 1
 944 1631 l 1
 950 1637 l 1
 1420 1290 l 1
 950 943 l 1
 944 949 l 1
 1112 1290 l 1
-10 705 m 1
 -10 764 l 1
 -10 820 l 1
 1770 820 l 1
 1770 763 l 1
 1770 705 l 1
 -10 705 l 1
EndSplineSet
EndChar
StartChar: chi
Encoding: 967 967 56
Width: 1960
VWidth: 2573
Flags: W
HStem: 705 115<-10 1970> 880 63G<174 207.666 863.313 894.391> 1305 332G<174 207.666 853.976 885 1005.98 1035 1416.5 1612.29> 1470 10<1931.34 1951>
LayerCount: 2
Fore
SplineSet
664 1290 m 1xc0
 770 1100 l 1
 1029 1325 l 1
 1035 1319 l 1
 888 859 l 1
 356 1290 l 1
 879 1708 l 1
 885 1702 l 1
 664 1290 l 1xc0
352 1290 m 1
 174 1631 l 1
 180 1637 l 1xe0
 660 1290 l 1
 180 943 l 1
 174 949 l 1
 352 1290 l 1
1951 1470 m 1xd0
 1738 1428 1633 1354 1246 847 c 2
 994 517 l 2
 819 287 699 109 600 -13 c 1
 244 60 l 1
 366 154 448 212 797 660 c 2
 1050 985 l 2
 1204 1182 1382 1429 1451 1542 c 1
 1951 1480 l 1
 1951 1470 l 1xd0
-10 705 m 1
 -10 764 l 1
 -10 820 l 1
 1970 820 l 1
 1970 763 l 1
 1970 705 l 1
 -10 705 l 1
EndSplineSet
EndChar
StartChar: wdieresis
Encoding: 7813 7813 59
Width: 2560
VWidth: 2573
Flags: W
HStem: 705 115<-10 2047 2165 2570> 705 88<2094.51 2431> 1163 21G<320 400 595.964 627> 1287 10<758.656 816> 1389 20G<320 408.571 596.545 627 1059.03 1163.5> 1701 20G<596.545 627>
LayerCount: 2
Fore
SplineSet
810 372 m 1x7c
 987 412 1482.06835938 605.150390625 2015 805 c 2
 2047 817 l 1
 2165 793 l 1
 2431 793 l 1
 2111 647 l 2
 1670 445 1167 241 1030 200 c 1
 810 372 l 1x7c
320 1163 m 25
 320 1409 l 1
 816 1297 l 25
 816 1287 l 1
 320 1163 l 25
412 1290 m 1
 627 875 l 1
 621 869 l 1
 94 1290 l 1
 621 1721 l 1
 627 1715 l 1
 412 1290 l 1
2033 671 m 1
 1797 788 l 2
 1465 952 1087 1134 846 1244 c 1
 1086 1422 l 1
 1241 1313 1663.64160156 1088.47460938 1923 955 c 2
 2333 744 l 1
 2033 671 l 1
-10 705 m 1xbc
 -10 764 l 1
 -10 820 l 1
 2570 820 l 1
 2570 763 l 1
 2570 705 l 1
 -10 705 l 1xbc
EndSplineSet
EndChar
StartChar: space.phy
Encoding: 65536 -1 17
Width: 1200
VWidth: 2573
Flags: W
HStem: 705 115<0 1200>
VStem: 484 261<300 1272>
LayerCount: 2
Fore
SplineSet
745 1272 m 1
 745 -182 l 5
 292 300 l 5
 484 300 l 5
 484 1724 l 1
 937 1272 l 1
 745 1272 l 1
0 705 m 1
 -50 764 l 1
 0 820 l 1
 1200 820 l 1
 1250 763 l 1
 1200 705 l 1
 0 705 l 1
EndSplineSet
EndChar
